<svg width="20" height="16" viewBox="0 0 20 16" fill="none" xmlns="http://www.w3.org/2000/svg">
<path d="M1.85937 9.43701L8.91797 15.6017C9.21094 15.8575 9.59766 16 10 16C10.4023 16 10.7891 15.8575 11.082 15.6017L18.1406 9.43701C19.3281 8.40286 20 6.95213 20 5.43563V5.22368C20 2.66938 18.0273 0.491461 15.3359 0.0712247C13.5547 -0.206497 11.7422 0.337983 10.4688 1.52926L10 1.96777L9.53125 1.52926C8.25781 0.337983 6.44531 -0.206497 4.66406 0.0712247C1.97266 0.491461 0 2.66938 0 5.22368V5.43563C0 6.95213 0.671875 8.40286 1.85937 9.43701Z" fill="#637381"/>
</svg>
